HIERARCHY
ROOT Hips
{
	OFFSET 0.00000 0.00000 0.00000
	CHANNELS 6 Xposition Yposition Zposition Zrotation Yrotation Xrotation 
	JOINT LHipJoint
	{
		OFFSET 0 0 0
		CHANNELS 3 Zrotation Yrotation Xrotation
		JOINT LeftUpLeg
		{
			OFFSET 1.85590 -1.73949 0.84976
			CHANNELS 3 Zrotation Yrotation Xrotation
			JOINT LeftLeg
			{
				OFFSET 2.36836 -6.50702 0.00000
				CHANNELS 3 Zrotation Yrotation Xrotation
				JOINT LeftFoot
				{
					OFFSET 2.53268 -6.95849 0.00000
					CHANNELS 3 Zrotation Yrotation Xrotation
					JOINT LeftToeBase
					{
						OFFSET 0.15935 -0.43781 1.94506
						CHANNELS 3 Zrotation Yrotation Xrotation
						End Site
						{
							OFFSET 0.00000 -0.00000 1.00661
						}
					}
				}
			}
		}
	}
	JOINT RHipJoint
	{
		OFFSET 0 0 0
		CHANNELS 3 Zrotation Yrotation Xrotation
		JOINT RightUpLeg
		{
			OFFSET -1.68297 -1.73949 0.84976
			CHANNELS 3 Zrotation Yrotation Xrotation
			JOINT RightLeg
			{
				OFFSET -2.44709 -6.72334 0.00000
				CHANNELS 3 Zrotation Yrotation Xrotation
				JOINT RightFoot
				{
					OFFSET -2.43843 -6.69953 0.00000
					CHANNELS 3 Zrotation Yrotation Xrotation
					JOINT RightToeBase
					{
						OFFSET -0.20854 -0.57295 2.02172
						CHANNELS 3 Zrotation Yrotation Xrotation
						End Site
						{
							OFFSET -0.00000 -0.00000 1.05594
						}
					}
				}
			}
		}
	}
	JOINT LowerBack
	{
		OFFSET 0 0 0
		CHANNELS 3 Zrotation Yrotation Xrotation
		JOINT Spine
		{
			OFFSET -0.01560 2.23971 -0.03712
			CHANNELS 3 Zrotation Yrotation Xrotation
			JOINT Spine1
			{
				OFFSET 0.05490 2.19225 -0.19086
				CHANNELS 3 Zrotation Yrotation Xrotation
				JOINT Neck
				{
					OFFSET 0 0 0
					CHANNELS 3 Zrotation Yrotation Xrotation
					JOINT Neck1
					{
						OFFSET -0.12403 1.43168 0.27585
						CHANNELS 3 Zrotation Yrotation Xrotation
						JOINT Head
						{
							OFFSET 0.17855 1.46173 -0.32578
							CHANNELS 3 Zrotation Yrotation Xrotation
							End Site
							{
								OFFSET 0.07217 1.51590 -0.14537
							}
						}
					}
				}
				JOINT LeftShoulder
				{
					OFFSET 0 0 0
					CHANNELS 3 Zrotation Yrotation Xrotation
					JOINT LeftArm
					{
						OFFSET 3.27650 0.85634 0.05396
						CHANNELS 3 Zrotation Yrotation Xrotation
						JOINT LeftForeArm
						{
							OFFSET 4.96755 -0.00000 0.00000
							CHANNELS 3 Zrotation Yrotation Xrotation
							JOINT LeftHand
							{
								OFFSET 3.35751 -0.00000 0.00000
								CHANNELS 3 Zrotation Yrotation Xrotation
								JOINT LeftFingerBase
								{
									OFFSET 0 0 0
									CHANNELS 3 Zrotation Yrotation Xrotation
									JOINT LeftHandIndex1
									{
										OFFSET 0.79697 -0.00000 0.00000
										CHANNELS 3 Zrotation Yrotation Xrotation
										End Site
										{
											OFFSET 0.64254 -0.00000 0.00000
										}
									}
								}
								JOINT LThumb
								{
									OFFSET 0 0 0
									CHANNELS 3 Zrotation Yrotation Xrotation
									End Site
									{
										OFFSET 0.65235 -0.00000 0.65235
									}
								}
							}
						}
					}
				}
				JOINT RightShoulder
				{
					OFFSET 0 0 0
					CHANNELS 3 Zrotation Yrotation Xrotation
					JOINT RightArm
					{
						OFFSET -3.24434 1.02034 0.34688
						CHANNELS 3 Zrotation Yrotation Xrotation
						JOINT RightForeArm
						{
							OFFSET -5.21859 -0.00000 -0.00000
							CHANNELS 3 Zrotation Yrotation Xrotation
							JOINT RightHand
							{
								OFFSET -3.36504 -0.00000 0.00000
								CHANNELS 3 Zrotation Yrotation Xrotation
								JOINT RightFingerBase
								{
									OFFSET 0 0 0
									CHANNELS 3 Zrotation Yrotation Xrotation
									JOINT RightHandIndex1
									{
										OFFSET -0.62044 -0.00000 0.00000
										CHANNELS 3 Zrotation Yrotation Xrotation
										End Site
										{
											OFFSET -0.50022 -0.00000 0.00000
										}
									}
								}
								JOINT RThumb
								{
									OFFSET 0 0 0
									CHANNELS 3 Zrotation Yrotation Xrotation
									End Site
									{
										OFFSET -0.50786 -0.00000 0.50786
									}
								}
							}
						}
					}
				}
			}
		}
	}
}
MOTION
Frames: 10
Frame Time: .0083333
7.4882 15.9816 -35.4705 0 0 0 0 0 0 -21 0 0 0 0 0 0 0 0 0 0 0 0 0 0 21 0 0 0 0 0 0 0 0 0 0 0 0 0 0 0 0 0 0 0 0 0 0 -16 0 0 21 0 0 11 0 0 0 -8 0 0 0 0 0 0 0 0 0 0 0 0 0 0 0 0 0 0 0 0 8 0 0 0 0 0 0 0 0 0 0 0 0 0 0 0 0 0
7.4882 15.9816 -35.4705 3.6654 6.4363 6.8092 0.0000 0.0000 0.0000 -28.0774 7.9476 7.4774 0.0000 -0.0000 -0.0000 0.3085 -7.3416 -10.4250 0.0800 -1.8240 -5.0195 0.0000 0.0000 0.0000 6.3311 20.9635 -35.3525 -2.0244 -8.9168 25.5354 -1.3777 -4.0963 -23.9827 -0.5565 4.7787 -13.2784 -4.4228 -3.4470 -5.2907 2.1576 -4.3982 -1.2681 4.3821 -2.2284 2.1545 -11.5654 -1.9740 -22.1525 8.7832 -0.9708 18.8967 4.8875 -0.2637 9.7370 -0.0000 0.0000 0.0000 -82.6779 -21.0841 53.4598 19.7750 -30.3703 -5.4171 -0.0000 0.0000 -8.1595 16.7130 -24.8837 -7.2008 -7.1250 0.0000 -0.0000 -7.8095 4.3438 7.2647 -0.0000 0.0000 0.0000 78.1289 -17.3196 40.3487 -15.3989 24.6989 -3.3909 0.0000 -0.0000 -11.0895 -28.0327 -24.5090 12.4553 7.1250 -0.0000 -0.0000 1.5771 -57.2898 -0.4748
7.4850 15.9728 -35.2561 3.4296 6.3038 6.8302 0.0000 0.0000 0.0000 -27.6670 8.3581 8.1986 0.0000 0.0000 0.0000 0.3520 -7.4167 -11.0273 0.1103 -2.1412 -5.8961 0.0000 0.0000 0.0000 5.0569 23.9816 -35.1567 -1.8600 -8.5682 24.4536 -1.6409 -5.1586 -26.5212 -0.5717 4.8422 -13.4591 -4.3399 -3.4555 -5.5173 2.3353 -4.4095 -1.2344 4.5047 -2.2389 2.3251 -11.2619 -1.9414 -22.7091 8.1905 -0.8389 19.4002 4.6626 -0.2502 9.9980 -0.0000 0.0000 0.0000 -82.8579 -21.5145 53.0938 20.2711 -30.9676 -5.6702 -0.0000 0.0000 -7.8700 17.1810 -24.6670 -7.3527 -7.1250 0.0000 -0.0000 -7.5067 4.4939 6.9566 -0.0000 0.0000 0.0000 78.1066 -17.5827 39.2538 -14.7812 23.8405 -3.1370 0.0000 -0.0000 -10.1230 -28.4449 -22.7942 11.8527 7.1250 -0.0000 -0.0000 0.6245 -55.5238 -0.1613
7.4798 15.9565 -35.0437 3.3358 6.2030 6.8379 0.0000 0.0000 0.0000 -27.3952 8.7533 9.0002 0.0000 0.0000 0.0000 0.3973 -7.3984 -11.6054 0.1622 -2.5949 -7.1528 0.0000 0.0000 0.0000 3.5911 26.9233 -35.2589 -1.7916 -8.4177 23.9903 -1.8918 -6.2064 -28.8194 -0.5811 4.8810 -13.5695 -4.3107 -3.4307 -5.7340 2.5004 -4.3741 -1.2562 4.6517 -2.2238 2.4305 -11.9351 -1.9939 -22.6651 8.4775 -0.7632 19.6249 4.8987 -0.2376 10.0662 -0.0000 -0.0000 0.0000 -83.2803 -21.8370 52.6528 20.6686 -31.4395 -5.8761 -0.0000 0.0000 -7.5736 17.1645 -25.2075 -7.4941 -7.1250 0.0000 -0.0000 -7.5587 3.9474 7.0835 -0.0000 -0.0000 0.0000 78.0139 -18.0344 38.0201 -14.2520 23.0938 -2.9262 0.0000 -0.0000 -9.1420 -29.0202 -21.7706 11.6269 7.1250 -0.0000 -0.0000 -0.2493 -54.5265 0.0584
7.4741 15.9558 -34.8295 3.4932 6.1787 6.8785 0.0000 0.0000 0.0000 -27.3689 8.9945 9.7038 0.0000 -0.0000 -0.0000 0.4055 -7.1950 -11.6651 0.1867 -2.7827 -7.6744 0.0000 0.0000 0.0000 1.7463 29.9491 -35.2029 -1.7287 -8.2765 23.5571 -2.2619 -7.2592 -31.7293 -0.5203 4.6228 -12.8357 -4.4284 -3.5058 -5.9917 2.3914 -4.4543 -1.2601 4.5816 -2.2672 2.5795 -12.3746 -1.9447 -22.3095 9.1286 -0.7447 19.5249 5.2069 -0.1887 9.9664 -0.0000 -0.0000 0.0000 -83.0492 -22.1460 52.3059 21.0442 -31.8800 -6.0733 -0.0000 0.0000 -7.9808 16.3762 -26.1974 -7.3917 -7.1250 0.0000 -0.0000 -8.1149 3.0653 7.7486 -0.0000 -0.0000 0.0000 78.2904 -18.4913 37.3216 -13.8453 22.5131 -2.7686 0.0000 -0.0000 -9.0932 -30.2636 -22.3108 12.4902 7.1250 -0.0000 -0.0000 -1.4742 -55.3860 0.3759
7.4684 15.9395 -34.6131 3.6960 6.1209 7.0220 0.0000 0.0000 0.0000 -27.3759 9.1894 10.2729 0.0000 -0.0000 -0.0000 0.3950 -7.1530 -11.5222 0.1927 -2.8272 -7.7981 0.0000 0.0000 0.0000 1.2769 29.9331 -35.6732 -1.6938 -8.1968 23.3135 -2.5714 -5.8150 -32.7690 -0.5396 4.7066 -13.0737 -4.5462 -3.5894 -6.3368 2.1400 -4.5363 -1.1977 4.3549 -2.3143 2.8347 -11.8131 -1.7790 -22.3406 9.1102 -0.6947 19.4661 5.1114 -0.1229 9.9415 -0.0000 0.0000 0.0000 -82.6072 -22.5804 51.7004 21.4765 -32.3803 -6.3032 -0.0000 0.0000 -8.1912 15.4465 -27.1159 -7.1783 -7.1250 0.0000 -0.0000 -8.7444 2.2816 8.4900 -0.0000 0.0000 0.0000 78.9223 -18.6253 36.1892 -13.3403 21.7838 -2.5782 0.0000 -0.0000 -8.8545 -31.2505 -21.1037 12.3250 7.1250 -0.0000 -0.0000 -2.7840 -54.2548 0.6336
7.4644 15.9035 -34.4025 3.8564 5.9031 7.0318 0.0000 0.0000 0.0000 -27.3400 9.6026 10.9309 0.0000 -0.0000 -0.0000 0.3957 -7.2107 -11.5440 0.2434 -3.1751 -8.7665 0.0000 0.0000 0.0000 1.0407 30.1025 -35.9599 -1.6813 -8.1681 23.2257 -2.4593 -5.4283 -31.9278 -0.7225 5.4316 -15.1437 -4.7526 -3.6329 -6.4034 2.0857 -4.5759 -1.1653 4.4047 -2.3384 2.9214 -11.3249 -1.5774 -22.5931 8.7493 -0.4716 19.6859 4.9404 -0.0251 10.0366 -0.0000 -0.0000 0.0000 -82.5132 -22.8619 51.3270 21.9824 -32.9571 -6.5762 -0.0000 0.0000 -8.4592 16.1136 -26.8943 -7.4452 -7.1250 0.0000 -0.0000 -8.3284 2.4028 8.0586 -0.0000 -0.0000 0.0000 79.1874 -18.6162 34.3630 -12.7176 20.8721 -2.3517 0.0000 -0.0000 -7.3491 -30.2191 -19.6135 11.0627 7.1250 -0.0000 -0.0000 -1.9424 -52.3803 0.3530
7.4588 15.8711 -34.1922 3.8260 5.6441 6.9495 0.0000 0.0000 0.0000 -27.0759 10.1339 11.7294 0.0000 -0.0000 -0.0000 0.3944 -7.1180 -11.5070 0.3054 -3.5531 -9.8226 0.0000 0.0000 0.0000 1.1910 30.3738 -36.0607 -1.7071 -8.2274 23.4068 -2.3230 -5.8685 -31.3418 -0.7868 5.6624 -15.8079 -4.9197 -3.7280 -6.3040 2.2802 -4.7026 -1.2224 4.6959 -2.4021 2.8510 -11.4044 -1.4177 -22.7642 8.5386 -0.1594 19.9671 4.9341 0.0846 10.1325 -0.0000 -0.0000 0.0000 -82.7069 -22.8642 50.8882 22.3741 -33.3973 -6.7906 -0.0000 0.0000 -8.7870 16.8166 -26.2530 -7.6146 -7.1250 0.0000 -0.0000 -7.8541 2.9414 7.5126 -0.0000 -0.0000 0.0000 78.8772 -18.7795 33.1904 -12.1838 20.0797 -2.1650 0.0000 -0.0000 -5.8936 -29.2231 -18.5927 10.1130 7.1250 -0.0000 -0.0000 -1.0849 -51.0558 0.1619
7.4487 15.8524 -33.9728 3.9596 5.4294 7.0125 0.0000 0.0000 0.0000 -26.9422 10.5729 12.5399 0.0000 0.0000 0.0000 0.3785 -7.1234 -11.3043 0.3229 -3.6524 -10.1007 0.0000 0.0000 0.0000 2.6342 27.6848 -36.5694 -1.7530 -8.3314 23.7251 -1.9848 -4.5668 -28.5624 -0.8449 5.8627 -16.3866 -5.2249 -3.8605 -6.4040 2.4064 -4.8590 -1.3471 4.9806 -2.4806 2.8323 -11.5742 -1.2832 -22.5801 8.4019 0.0996 19.9443 4.9451 0.1720 10.0615 -0.0000 -0.0000 0.0000 -83.0004 -22.6219 50.2253 22.6801 -33.7371 -6.9598 -0.0000 0.0000 -8.5268 16.9625 -26.3739 -7.7163 -7.1250 0.0000 -0.0000 -7.7763 2.7962 7.4576 -0.0000 -0.0000 0.0000 78.5359 -19.0915 32.4206 -11.7757 19.4674 -2.0269 0.0000 -0.0000 -4.6885 -28.9427 -18.2670 9.8337 7.1250 -0.0000 -0.0000 -0.8539 -50.6436 0.1188
7.4332 15.7989 -33.7470 4.4895 5.1124 7.0812 0.0000 0.0000 0.0000 -27.2105 11.0404 13.2875 0.0000 0.0000 0.0000 0.3640 -7.3051 -11.1566 0.3595 -3.8521 -10.6609 0.0000 0.0000 0.0000 3.7602 24.9541 -37.2495 -1.8523 -8.5514 24.4017 -1.6752 -3.0872 -25.7235 -0.9816 6.3066 -17.6766 -4.8397 -3.8011 -7.7586 1.3331 -4.6951 -0.5756 3.5510 -2.4312 4.2497 -10.6093 -1.1995 -22.7118 8.7175 -0.1569 19.3176 4.8423 0.1802 9.8884 0.0000 -0.0000 0.0000 -81.3291 -23.5484 50.1964 23.1409 -34.2425 -7.2174 -0.0000 0.0000 -9.0654 16.7983 -27.0751 -7.8238 -7.1250 0.0000 -0.0000 -7.9346 2.1131 7.7117 0.0000 -0.0000 0.0000 80.4647 -18.1347 30.2325 -11.0889 18.4244 -1.8039 0.0000 -0.0000 -2.5401 -29.7140 -18.5716 10.3020 7.1250 -0.0000 -0.0000 -1.5887 -51.1221 0.2397
